<?xml version="1.0" encoding="utf-8"?>
<!-- Generator: Adobe Illustrator 22.0.1, SVG Export Plug-In . SVG Version: 6.00 Build 0)  -->
<svg version="1.1" id="Layer_1" focusable="false" xmlns="http://www.w3.org/2000/svg" xmlns:xlink="http://www.w3.org/1999/xlink"
	 x="0px" y="0px" viewBox="0 0 448 382" style="enable-background:new 0 0 448 382;" xml:space="preserve">
<path d="M288,16.5v40c0,8.8-7.2,16-16,16H16c-8.8,0-16-7.2-16-16v-40c0-8.8,7.2-16,16-16h256C280.8,0.5,288,7.7,288,16.5z M0,171.5
	v40c0,8.8,5.8,16,13,16h339c7.2,0,13-7.2,13-16v-40c0-8.8-5.8-16-13-16H13C5.8,155.5,0,162.7,0,171.5z M16,381.5h416
	c8.8,0,16-7.2,16-16v-40c0-8.8-7.2-16-16-16H16c-8.8,0-16,7.2-16,16v40C0,374.3,7.2,381.5,16,381.5z"/>
</svg>
